<svg width="500" height="24" fill="none" xmlns="http://www.w3.org/2000/svg"><path fill="#154273" d="M227 0h45v24h-45z"/><path d="M282.768 1.81 282 1.573V1.28a4.68 4.68 0 0 1 1.421-.239c.227 0 .435.007.626.02.19.014.394.05.612.11v.258c-.218.05-.361.141-.429.273-.063.127-.063.301 0 .524l1.516 5.622h.014l1.475-6.037-.734-.225V1.28c.259-.077.508-.134.748-.17a5.532 5.532 0 0 1 1.38-.02c.204.022.377.058.517.108v.265c-.267.091-.356.332-.265.722l1.353 5.65h.014l1.529-6.01-.849-.266v-.293c.258-.077.505-.134.741-.17.24-.036.48-.055.72-.055a2.451 2.451 0 0 1 .905.143v.245c-.182.118-.327.25-.435.395a1.84 1.84 0 0 0-.259.586l-2.284 7.664-.544.054-1.938-7.358h-.014l-1.917 7.304-.531.054-2.604-8.317ZM293.294 8.665c0-.304.081-.592.244-.865.164-.276.399-.52.708-.728a3.674 3.674 0 0 1 1.135-.49 5.822 5.822 0 0 1 1.53-.184v-.38c0-.378-.025-.684-.075-.92a1.327 1.327 0 0 0-.217-.551.749.749 0 0 0-.388-.28 1.823 1.823 0 0 0-.558-.074 2.79 2.79 0 0 0-1.115.231 3.163 3.163 0 0 0-.972.674 1.698 1.698 0 0 1-.048-.415c0-.222.044-.42.13-.592.086-.177.219-.325.401-.443a2.11 2.11 0 0 1 .707-.279c.29-.063.639-.095 1.047-.095.354 0 .669.043.945.13.277.086.51.21.7.374.195.159.343.354.442.585.105.227.157.486.157.776a14.324 14.324 0 0 1-.027.667l-.014.395-.014.347-.04 2.26c.049.127.122.254.217.381.1.122.213.231.34.327a2.452 2.452 0 0 1-.415.388 3.452 3.452 0 0 1-.537.326 1.876 1.876 0 0 1-.353-.3 2.273 2.273 0 0 1-.286-.387 1.718 1.718 0 0 1-.353.265 2.829 2.829 0 0 1-.456.211 2.69 2.69 0 0 1-.524.143 2.755 2.755 0 0 1-.543.055c-.263 0-.504-.039-.721-.116a1.782 1.782 0 0 1-.558-.32 1.488 1.488 0 0 1-.489-1.116Zm1.196-.204c0 .281.091.506.272.674.186.163.456.245.809.245.109 0 .223-.01.34-.028.123-.022.243-.05.361-.081.122-.037.238-.078.347-.123a2.56 2.56 0 0 0 .292-.143V7.052c-.394 0-.743.038-1.047.115a2.457 2.457 0 0 0-.755.307 1.37 1.37 0 0 0-.462.449.996.996 0 0 0-.157.538ZM300.283 8.25c0-.336.005-.681.014-1.035l.027-1.014.041-1.852h-.762v-.462l1.503-1.491.462-.055-.061 1.253h1.843l-.102.755h-1.782l-.027 1.757c-.009.295-.013.576-.013.844v.782c0 .282.02.52.061.715.041.195.097.352.17.47a.685.685 0 0 0 .265.258c.104.05.222.075.354.075a1.616 1.616 0 0 0 1.033-.36l.136.054c-.054.83-.555 1.245-1.503 1.245-.562 0-.979-.152-1.251-.456-.272-.308-.408-.803-.408-1.483ZM303.928 7.024c0-.608.084-1.145.251-1.613.168-.467.388-.857.66-1.17.272-.318.582-.559.931-.722a2.495 2.495 0 0 1 1.068-.245c.376 0 .712.061 1.006.184.299.118.553.29.762.517.208.227.367.501.476.824.109.322.163.683.163 1.082v.415c0 .145-.005.304-.014.477h-4.106c0 .39.052.737.156 1.041.109.304.256.563.442.776.186.209.403.37.653.483.249.11.519.164.809.164.167 0 .34-.014.516-.041.177-.027.349-.066.517-.116.172-.054.338-.118.497-.19.158-.078.303-.162.435-.252a.79.79 0 0 1 .034.156c.013.068.02.139.02.211 0 .159-.057.311-.17.456a1.441 1.441 0 0 1-.476.388 3.033 3.033 0 0 1-.755.266 4.416 4.416 0 0 1-.992.102c-.399 0-.773-.075-1.122-.225a2.75 2.75 0 0 1-.918-.64 3.124 3.124 0 0 1-.619-1.007 3.715 3.715 0 0 1-.224-1.32Zm4.202-.98c0-.34-.036-.637-.109-.891a1.744 1.744 0 0 0-.292-.627 1.165 1.165 0 0 0-.442-.374 1.248 1.248 0 0 0-.565-.13c-.19 0-.38.055-.571.164a1.845 1.845 0 0 0-.503.443 2.416 2.416 0 0 0-.36.64 2.21 2.21 0 0 0-.136.775h2.978ZM310.36 9.768a1.398 1.398 0 0 0 .503-.3.737.737 0 0 0 .17-.211.468.468 0 0 0 .068-.238V4.302l-.904-.375v-.306c.322-.09.628-.154.918-.19.294-.041.544-.062.748-.062h.34v.98h.013l.388-.435c.19-.204.383-.356.578-.456.195-.105.41-.157.646-.157.485 0 .727.2.727.6a1.6 1.6 0 0 1-.061.421 2.208 2.208 0 0 1-.163.415 1.506 1.506 0 0 0-.422-.238 1.284 1.284 0 0 0-.442-.081c-.43 0-.838.19-1.224.571V9.42l.959.211v.266c-.118.04-.238.077-.36.109-.118.027-.245.05-.381.068a5.877 5.877 0 0 1-.449.04 9.53 9.53 0 0 1-.537.014c-.204 0-.401-.009-.591-.027a2.292 2.292 0 0 1-.524-.095v-.238ZM314.698 9.352a.784.784 0 0 1 .238-.571.783.783 0 0 1 .252-.17.759.759 0 0 1 .625 0 .767.767 0 0 1 .428.428.71.71 0 0 1 .068.313.739.739 0 0 1-.068.313.759.759 0 0 1-.428.43.758.758 0 0 1-.625 0 .782.782 0 0 1-.252-.17.858.858 0 0 1-.177-.26.816.816 0 0 1-.061-.313ZM320.681 1.81l-.768-.238V1.28a4.68 4.68 0 0 1 1.421-.239c.227 0 .435.007.626.02.19.014.394.05.612.11v.258c-.218.05-.361.141-.429.273-.063.127-.063.301 0 .524l1.516 5.622h.014l1.476-6.037-.735-.225V1.28c.259-.077.508-.134.748-.17a5.532 5.532 0 0 1 1.38-.02c.204.022.377.058.517.108v.265c-.267.091-.356.332-.265.722l1.353 5.65h.014l1.529-6.01-.849-.266v-.293c.258-.077.505-.134.741-.17.24-.036.48-.055.72-.055a2.451 2.451 0 0 1 .905.143v.245c-.182.118-.327.25-.435.395a1.84 1.84 0 0 0-.259.586l-2.284 7.664-.544.054-1.938-7.358h-.014l-1.917 7.304-.53.054-2.605-8.317ZM331.384 7.024c0-.608.083-1.145.251-1.613.168-.467.388-.857.66-1.17.272-.318.582-.559.931-.722a2.495 2.495 0 0 1 1.068-.245c.376 0 .711.061 1.006.184.299.118.553.29.761.517.209.227.368.501.476.824.109.322.164.683.164 1.082v.415c0 .145-.005.304-.014.477h-4.107c0 .39.052.737.157 1.041.108.304.256.563.442.776.185.209.403.37.652.483.25.11.519.164.809.164.168 0 .34-.014.517-.041.177-.027.349-.066.517-.116.172-.054.338-.118.496-.19.159-.078.304-.162.435-.252a.723.723 0 0 1 .034.156c.014.068.021.139.021.211 0 .159-.057.311-.17.456a1.452 1.452 0 0 1-.476.388 3.047 3.047 0 0 1-.755.266 4.426 4.426 0 0 1-.993.102c-.398 0-.772-.075-1.121-.225a2.74 2.74 0 0 1-.918-.64 3.107 3.107 0 0 1-.619-1.007 3.693 3.693 0 0 1-.224-1.32Zm4.201-.98c0-.34-.036-.637-.108-.891a1.744 1.744 0 0 0-.293-.627 1.15 1.15 0 0 0-.442-.374 1.24 1.24 0 0 0-.564-.13c-.19 0-.381.055-.571.164a1.83 1.83 0 0 0-.503.443 2.233 2.233 0 0 0-.497 1.416h2.978ZM338.026 9.223c0-.132.025-.26.075-.388.055-.132.125-.254.211-.368.091-.113.195-.213.313-.299s.242-.152.374-.197v-.014a1.876 1.876 0 0 1-.463-.272 2.035 2.035 0 0 1-.401-.43 2.462 2.462 0 0 1-.279-.564 2.053 2.053 0 0 1-.108-.674 2.717 2.717 0 0 1 .809-1.96 2.779 2.779 0 0 1 1.965-.797c.14 0 .288.014.442.041.154.027.299.064.435.11a2.3 2.3 0 0 1 .367.142c.113.055.2.109.258.163a1.17 1.17 0 0 1 .232-.163 2.085 2.085 0 0 1 .646-.238c.117-.027.233-.041.346-.041.118 0 .229.01.333.027.109.014.198.032.266.055l-.096.919a5.71 5.71 0 0 0-.713-.11 7.039 7.039 0 0 0-.776-.04v.013c.114.087.218.189.313.307.1.113.184.236.252.367.072.132.127.27.163.415.041.146.061.289.061.43a2.63 2.63 0 0 1-.85 1.966c-.258.236-.557.42-.897.552a2.95 2.95 0 0 1-1.537.156 2.196 2.196 0 0 1-.401-.122.956.956 0 0 0-.163.122.94.94 0 0 0-.245.354.485.485 0 0 0-.041.19c0 .214.079.375.238.484.163.104.381.157.653.157l1.951-.014c.59-.009 1.041.12 1.353.388.313.263.469.656.469 1.178 0 .33-.086.644-.258.939a2.56 2.56 0 0 1-.714.776 3.585 3.585 0 0 1-1.081.524 4.404 4.404 0 0 1-1.346.197c-.44 0-.825-.043-1.156-.129a2.695 2.695 0 0 1-.83-.34 1.523 1.523 0 0 1-.503-.518c-.113-.2-.17-.415-.17-.646 0-.182.034-.356.102-.524.068-.164.161-.313.279-.45.118-.131.256-.247.415-.347a2.3 2.3 0 0 1 .53-.224v-.014a1.307 1.307 0 0 1-.605-.408 1.074 1.074 0 0 1-.218-.681Zm2.285-1.545a1.5 1.5 0 0 0 .592-.116c.185-.077.346-.197.482-.36.136-.164.243-.37.32-.62.081-.25.122-.545.122-.885 0-.29-.038-.544-.115-.762a1.454 1.454 0 0 0-.306-.538 1.17 1.17 0 0 0-.442-.32 1.324 1.324 0 0 0-.531-.109 1.22 1.22 0 0 0-.564.136c-.177.091-.331.223-.462.395a2.04 2.04 0 0 0-.32.62c-.077.24-.115.512-.115.816 0 .295.036.552.108.77.077.217.177.399.3.544a1.225 1.225 0 0 0 .931.429Zm-1.727 3.961c0 .146.036.282.109.409.077.127.19.238.34.333.149.096.335.17.557.225.222.059.481.088.775.088.331 0 .633-.038.905-.115a2.43 2.43 0 0 0 .693-.293c.195-.122.345-.263.449-.422a.884.884 0 0 0 .156-.49c0-.272-.088-.483-.265-.633-.177-.145-.433-.218-.768-.218h-2.244c-.1.045-.193.107-.279.184a1.34 1.34 0 0 0-.224.258c-.063.1-.113.207-.15.32a1.208 1.208 0 0 0-.054.354ZM344.302 7.024c0-.608.084-1.145.252-1.613.168-.467.387-.857.659-1.17.272-.318.583-.559.932-.722a2.494 2.494 0 0 1 1.067-.245c.377 0 .712.061 1.007.184.299.118.553.29.761.517.209.227.367.501.476.824.109.322.163.683.163 1.082v.415c0 .145-.004.304-.013.477h-4.107c0 .39.052.737.156 1.041.109.304.256.563.442.776.186.209.404.37.653.483.249.11.519.164.809.164.168 0 .34-.014.517-.041.177-.027.349-.066.517-.116.172-.054.337-.118.496-.19.159-.078.304-.162.435-.252a.723.723 0 0 1 .034.156c.014.068.021.139.021.211 0 .159-.057.311-.17.456a1.452 1.452 0 0 1-.476.388 3.047 3.047 0 0 1-.755.266 4.432 4.432 0 0 1-.993.102c-.399 0-.773-.075-1.122-.225a2.75 2.75 0 0 1-.918-.64 3.122 3.122 0 0 1-.618-1.007 3.693 3.693 0 0 1-.225-1.32Zm4.202-.98c0-.34-.036-.637-.109-.891a1.744 1.744 0 0 0-.292-.627 1.158 1.158 0 0 0-.442-.374 1.24 1.24 0 0 0-.564-.13c-.191 0-.381.055-.571.164a1.849 1.849 0 0 0-.504.443 2.416 2.416 0 0 0-.36.64 2.21 2.21 0 0 0-.136.775h2.978ZM350.734 9.768a1.439 1.439 0 0 0 .504-.3.755.755 0 0 0 .17-.211.468.468 0 0 0 .068-.238V4.302l-.905-.375v-.306c.322-.09.628-.154.918-.19.295-.041.544-.062.748-.062h.34v.756c.236-.24.535-.431.898-.572.367-.14.754-.21 1.162-.21.29 0 .553.047.789.142.24.09.444.227.612.408.172.182.306.409.401.681.095.272.143.588.143.946v3.9l.727.211v.266c-.385.154-.872.231-1.462.231a4.02 4.02 0 0 1-.455-.027 1.8 1.8 0 0 1-.449-.095v-.238a.764.764 0 0 0 .374-.327c.082-.14.123-.338.123-.592V6.187c0-.34-.034-.63-.102-.871a1.61 1.61 0 0 0-.286-.585 1.073 1.073 0 0 0-.442-.327 1.473 1.473 0 0 0-.558-.102c-.285 0-.557.043-.815.13a2.117 2.117 0 0 0-.619.305V9.42l.775.211v.266c-.118.04-.236.077-.354.109a5.163 5.163 0 0 1-.782.109 7.703 7.703 0 0 1-.476.013c-.167 0-.344-.009-.53-.027a2.28 2.28 0 0 1-.517-.095v-.238ZM358.839 9.352c0-.113.021-.217.061-.313a.896.896 0 0 1 .177-.258.805.805 0 0 1 .252-.17.759.759 0 0 1 .625 0c.1.04.186.097.259.17a.789.789 0 0 1 .17.258.754.754 0 0 1 0 .626.789.789 0 0 1-.17.26.78.78 0 0 1-.259.17.758.758 0 0 1-.625 0 .804.804 0 0 1-.252-.17.896.896 0 0 1-.177-.26.835.835 0 0 1-.061-.313ZM364.823 1.81l-.769-.238V1.28a4.68 4.68 0 0 1 1.421-.239c.227 0 .435.007.626.02.19.014.394.05.612.11v.258c-.218.05-.361.141-.429.273-.063.127-.063.301 0 .524l1.517 5.622h.013l1.476-6.037-.735-.225V1.28c.259-.077.508-.134.748-.17a5.532 5.532 0 0 1 1.381-.02c.204.022.376.058.516.108v.265c-.267.091-.355.332-.265.722l1.353 5.65h.014l1.53-6.01-.85-.266v-.293c.258-.077.505-.134.741-.17.24-.036.48-.055.721-.055a2.451 2.451 0 0 1 .904.143v.245c-.181.118-.326.25-.435.395-.104.145-.191.34-.259.586l-2.284 7.664-.544.054-1.938-7.358h-.014l-1.917 7.304-.53.054-2.604-8.317ZM375.525 7.024c0-.608.084-1.145.251-1.613.168-.467.388-.857.66-1.17.272-.318.582-.559.931-.722a2.495 2.495 0 0 1 1.068-.245c.376 0 .712.061 1.006.184.299.118.553.29.762.517.208.227.367.501.476.824.108.322.163.683.163 1.082v.415c0 .145-.005.304-.014.477h-4.107c0 .39.053.737.157 1.041.109.304.256.563.442.776.186.209.403.37.652.483.25.11.52.164.81.164.167 0 .34-.014.516-.041.177-.027.349-.066.517-.116.172-.054.338-.118.496-.19.159-.078.304-.162.436-.252a.79.79 0 0 1 .034.156c.013.068.02.139.02.211 0 .159-.057.311-.17.456a1.441 1.441 0 0 1-.476.388 3.033 3.033 0 0 1-.755.266 4.416 4.416 0 0 1-.992.102c-.399 0-.773-.075-1.122-.225a2.75 2.75 0 0 1-.918-.64 3.107 3.107 0 0 1-.619-1.007 3.715 3.715 0 0 1-.224-1.32Zm4.202-.98c0-.34-.037-.637-.109-.891a1.76 1.76 0 0 0-.292-.627 1.165 1.165 0 0 0-.442-.374 1.248 1.248 0 0 0-.565-.13c-.19 0-.381.055-.571.164a1.845 1.845 0 0 0-.503.443 2.416 2.416 0 0 0-.36.64 2.21 2.21 0 0 0-.136.775h2.978ZM381.957 9.768a1.398 1.398 0 0 0 .503-.3.737.737 0 0 0 .17-.211.468.468 0 0 0 .068-.238V4.302l-.904-.375v-.306c.322-.09.628-.154.918-.19.294-.041.544-.062.748-.062h.34v.98h.013l.388-.435c.19-.204.383-.356.578-.456.195-.105.41-.157.646-.157.485 0 .727.2.727.6a1.6 1.6 0 0 1-.061.421 2.208 2.208 0 0 1-.163.415 1.506 1.506 0 0 0-.422-.238 1.284 1.284 0 0 0-.442-.081c-.43 0-.838.19-1.224.571V9.42l.959.211v.266c-.118.04-.238.077-.36.109-.118.027-.245.05-.381.068a5.877 5.877 0 0 1-.449.04 9.581 9.581 0 0 1-.537.014 6.27 6.27 0 0 1-.592-.027 2.293 2.293 0 0 1-.523-.095v-.238ZM386.621 9.768c.095-.032.188-.073.279-.123.091-.054.17-.113.238-.177a.755.755 0 0 0 .17-.211.468.468 0 0 0 .068-.238V.933l-.918-.382V.245c.322-.09.63-.154.925-.19a6.37 6.37 0 0 1 .741-.055h.476l-.082.776v5.575l.762-.667c.19-.16.371-.334.544-.525.172-.195.324-.392.455-.592.132-.2.236-.395.313-.585.082-.195.122-.372.122-.531a1.93 1.93 0 0 1 .361-.082c.113-.018.24-.027.381-.027.104 0 .199.011.285.034.091.018.181.048.272.089-.009.15-.052.32-.129.51-.077.19-.195.393-.354.606a5.009 5.009 0 0 1-.584.66 7.473 7.473 0 0 1-.83.68l-.483.348 2.142 2.607c.195.24.379.413.551.517.177.1.338.15.483.15v.293c-.159.104-.32.179-.483.224a2.056 2.056 0 0 1-.551.068c-.195 0-.376-.04-.544-.122a1.315 1.315 0 0 1-.442-.402l-2.271-3.002V9.42l.721.225v.265a4.622 4.622 0 0 1-.734.17c-.123.019-.252.03-.388.035a5.56 5.56 0 0 1-.972-.014 2.292 2.292 0 0 1-.524-.095v-.238ZM393.081 7.024c0-.608.083-1.145.251-1.613.168-.467.388-.857.66-1.17.272-.318.582-.559.931-.722a2.495 2.495 0 0 1 1.068-.245c.376 0 .711.061 1.006.184.299.118.553.29.762.517.208.227.367.501.475.824.109.322.164.683.164 1.082v.415c0 .145-.005.304-.014.477h-4.107c0 .39.052.737.157 1.041.108.304.256.563.442.776.185.209.403.37.652.483.25.11.519.164.809.164.168 0 .34-.014.517-.041.177-.027.349-.066.517-.116.172-.054.338-.118.496-.19.159-.078.304-.162.435-.252a.723.723 0 0 1 .034.156c.014.068.021.139.021.211 0 .159-.057.311-.17.456a1.452 1.452 0 0 1-.476.388 3.047 3.047 0 0 1-.755.266 4.42 4.42 0 0 1-.993.102c-.398 0-.772-.075-1.121-.225a2.75 2.75 0 0 1-.918-.64 3.107 3.107 0 0 1-.619-1.007 3.693 3.693 0 0 1-.224-1.32Zm4.202-.98c0-.34-.037-.637-.109-.891a1.744 1.744 0 0 0-.293-.627 1.15 1.15 0 0 0-.442-.374 1.24 1.24 0 0 0-.564-.13c-.19 0-.381.055-.571.164a1.83 1.83 0 0 0-.503.443 2.233 2.233 0 0 0-.497 1.416h2.979ZM399.513 9.768a1.398 1.398 0 0 0 .503-.3.755.755 0 0 0 .17-.211.468.468 0 0 0 .068-.238V4.302l-.904-.375v-.306c.321-.09.627-.154.917-.19.295-.041.544-.062.748-.062h.34v.756c.236-.24.535-.431.898-.572.367-.14.755-.21 1.163-.21.29 0 .553.047.788.142.241.09.445.227.612.408.172.182.306.409.401.681.096.272.143.588.143.946v3.9l.728.211v.266c-.386.154-.873.231-1.462.231-.145 0-.297-.009-.456-.027a1.793 1.793 0 0 1-.448-.095v-.238a.762.762 0 0 0 .373-.327c.082-.14.123-.338.123-.592V6.187c0-.34-.034-.63-.102-.871a1.595 1.595 0 0 0-.286-.585 1.067 1.067 0 0 0-.442-.327 1.464 1.464 0 0 0-.557-.102c-.286 0-.558.043-.816.13a2.13 2.13 0 0 0-.619.305V9.42l.775.211v.266c-.118.04-.235.077-.353.109a5.163 5.163 0 0 1-.782.109 7.727 7.727 0 0 1-.476.013c-.168 0-.345-.009-.53-.027a2.27 2.27 0 0 1-.517-.095v-.238ZM407.618 9.352a.784.784 0 0 1 .238-.571.79.79 0 0 1 .251-.17.763.763 0 0 1 .626 0 .774.774 0 0 1 .428.429.754.754 0 0 1 0 .626.774.774 0 0 1-.428.428.763.763 0 0 1-.626 0 .788.788 0 0 1-.251-.17.858.858 0 0 1-.177-.259.816.816 0 0 1-.061-.313ZM413.751 9.74c.272-.077.473-.193.605-.347.136-.159.204-.397.204-.715v-6.84l-.877-.28v-.306a8.16 8.16 0 0 1 .645-.095 11.504 11.504 0 0 1 1.354-.102c.24-.01.498-.014.775-.014 1.051 0 1.831.202 2.339.606.507.4.761.983.761 1.75 0 .344-.047.66-.143.946-.09.286-.222.54-.394.762a2.47 2.47 0 0 1-.632.572 3.292 3.292 0 0 1-.837.38l1.965 2.635c.168.227.363.422.585.585.222.16.46.282.714.368v.265c-.131.091-.286.164-.462.218a1.851 1.851 0 0 1-.599.089c-.149 0-.287-.016-.414-.048a1.205 1.205 0 0 1-.368-.163 1.783 1.783 0 0 1-.346-.307 4.236 4.236 0 0 1-.361-.476l-1.836-2.784h-.659v2.94l.877.225v.306a5.806 5.806 0 0 1-2.271.198 4.09 4.09 0 0 1-.625-.102V9.74Zm2.563-3.975c.272 0 .528-.043.768-.13.24-.09.449-.224.626-.4a1.93 1.93 0 0 0 .428-.675c.104-.272.156-.59.156-.952 0-.572-.172-1.015-.516-1.328-.34-.313-.809-.47-1.408-.47-.09 0-.19.007-.299.021-.109.01-.208.02-.299.034v3.9h.544ZM422.692 2.09a.781.781 0 0 1-.293-.055.746.746 0 0 1-.238-.17.96.96 0 0 1-.156-.252.9.9 0 0 1-.054-.32.86.86 0 0 1 .21-.571.847.847 0 0 1 .252-.184.797.797 0 0 1 .333-.068.753.753 0 0 1 .51.204.62.62 0 0 1 .156.238c.041.095.062.2.062.313a.923.923 0 0 1-.062.34.818.818 0 0 1-.17.273.755.755 0 0 1-.244.184.707.707 0 0 1-.306.068Zm-1.326 7.678a1.47 1.47 0 0 0 .272-.123c.09-.054.17-.113.238-.177a.755.755 0 0 0 .17-.211.501.501 0 0 0 .061-.238V4.302l-.891-.375v-.292c.313-.091.617-.157.911-.198.299-.045.547-.068.741-.068h.449l-.068.756V9.42l.775.211v.266c-.118.04-.235.077-.353.109-.114.027-.236.05-.367.068a5.163 5.163 0 0 1-.408.04 7.846 7.846 0 0 1-.483.014 5.58 5.58 0 0 1-.524-.027 2.283 2.283 0 0 1-.523-.095v-.238ZM426.431 2.09a.78.78 0 0 1-.292-.055.735.735 0 0 1-.394-.422.878.878 0 0 1-.055-.32c0-.109.018-.21.055-.306a.816.816 0 0 1 .156-.265.83.83 0 0 1 .251-.184.798.798 0 0 1 .606-.014.69.69 0 0 1 .387.388.923.923 0 0 1 0 .653.742.742 0 0 1-.163.273.76.76 0 0 1-.245.184.7.7 0 0 1-.306.068Zm-.584 2.212-.891-.375v-.292c.322-.091.628-.157.918-.198.294-.045.544-.068.748-.068h.448l-.081.783v6.255c0 .572-.041 1.049-.123 1.43-.081.386-.192.694-.333.925-.14.236-.308.402-.503.497-.19.1-.397.15-.619.15-.154 0-.301-.03-.442-.088a.793.793 0 0 1-.34-.245v-.225a.833.833 0 0 0 .449-.136c.15-.086.281-.218.395-.395.113-.177.204-.4.272-.667.068-.263.102-.572.102-.926V4.302ZM428.736 9.768c.095-.032.188-.073.279-.123.091-.054.17-.113.238-.177a.737.737 0 0 0 .17-.211.468.468 0 0 0 .068-.238V.933l-.918-.382V.245c.322-.09.63-.154.925-.19a6.37 6.37 0 0 1 .741-.055h.476l-.082.776v5.575l.762-.667c.19-.16.371-.334.544-.525.172-.195.324-.392.455-.592.132-.2.236-.395.313-.585.082-.195.122-.372.122-.531a1.93 1.93 0 0 1 .361-.082c.113-.018.24-.027.381-.027.104 0 .199.011.285.034.091.018.181.048.272.089-.009.15-.052.32-.129.51-.077.19-.195.393-.354.606a5.009 5.009 0 0 1-.584.66 7.473 7.473 0 0 1-.83.68l-.483.348 2.142 2.607c.195.24.379.413.551.517.177.1.338.15.483.15v.293c-.159.104-.32.179-.483.224a2.056 2.056 0 0 1-.551.068c-.195 0-.376-.04-.544-.122a1.315 1.315 0 0 1-.442-.402l-2.271-3.002V9.42l.721.225v.265a4.622 4.622 0 0 1-.734.17c-.123.019-.252.03-.388.035a5.56 5.56 0 0 1-.972-.014 2.292 2.292 0 0 1-.524-.095v-.238ZM435.114 9.073c0-.1.009-.2.027-.3a1.11 1.11 0 0 1 .095-.272c.313.295.626.516.939.66.312.146.655.219 1.026.219.39 0 .685-.082.884-.245.2-.168.3-.375.3-.62a.87.87 0 0 0-.062-.333.743.743 0 0 0-.197-.293 1.695 1.695 0 0 0-.367-.28c-.15-.09-.34-.183-.571-.278l-.701-.293c-.403-.172-.713-.404-.931-.694a1.702 1.702 0 0 1-.32-1.035c0-.277.057-.538.17-.783a1.99 1.99 0 0 1 .497-.653c.213-.186.467-.334.761-.442.299-.114.63-.17.993-.17.276 0 .514.02.714.06.199.041.36.1.483.178a.693.693 0 0 1 .367.626c0 .104-.007.204-.021.3-.013.09-.031.185-.054.285a3.152 3.152 0 0 0-.761-.381c-.282-.1-.556-.15-.823-.15-.222 0-.417.023-.585.068a1.22 1.22 0 0 0-.408.19.776.776 0 0 0-.245.273.761.761 0 0 0-.074.334c0 .127.015.24.047.34.036.1.095.193.177.28.086.085.199.167.34.244.14.077.315.157.523.238l.755.293c.249.095.46.202.632.32.177.113.32.24.429.381.113.14.195.297.245.47.049.168.074.354.074.558 0 .268-.063.526-.19.776a2.037 2.037 0 0 1-.524.653 2.702 2.702 0 0 1-.815.45c-.318.113-.671.17-1.061.17-.617 0-1.065-.096-1.346-.286-.281-.195-.422-.481-.422-.858ZM440.139 4.125l-.599-.422v-.334h2.7v.334l-.803.333 1.238 4.48h.013l1.381-4.446-.769-.367v-.334h2.367v.334l-.402.306 1.251 4.492h.014l1.435-4.417-.796-.381v-.334h2.149v.334l-.381.306-2.339 6.167-.585.027-1.543-5.132h-.014l-1.604 5.105-.626.027-2.087-6.078ZM449.569 8.665c0-.304.082-.592.245-.865.163-.276.399-.52.707-.728a3.69 3.69 0 0 1 1.136-.49 5.817 5.817 0 0 1 1.53-.184v-.38c0-.378-.025-.684-.075-.92-.045-.236-.118-.42-.218-.551a.746.746 0 0 0-.387-.28 1.823 1.823 0 0 0-.558-.074 2.79 2.79 0 0 0-1.115.231 3.14 3.14 0 0 0-.972.674 1.698 1.698 0 0 1-.048-.415c0-.222.043-.42.129-.592.086-.177.22-.325.402-.443.185-.122.421-.215.707-.279.29-.063.639-.095 1.047-.095.353 0 .668.043.945.13.276.086.51.21.7.374.195.159.342.354.442.585.104.227.157.486.157.776a9.35 9.35 0 0 1-.028.667l-.013.395-.014.347-.041 2.26c.05.127.123.254.218.381.1.122.213.231.34.327a2.49 2.49 0 0 1-.415.388 3.452 3.452 0 0 1-.537.326 1.915 1.915 0 0 1-.354-.3 2.324 2.324 0 0 1-.285-.387 1.699 1.699 0 0 1-.354.265c-.14.082-.292.152-.455.211a2.69 2.69 0 0 1-.524.143 2.758 2.758 0 0 1-.544.055c-.263 0-.503-.039-.721-.116a1.777 1.777 0 0 1-.557-.32 1.504 1.504 0 0 1-.49-1.116Zm1.197-.204c0 .281.091.506.272.674.186.163.456.245.809.245.109 0 .222-.01.34-.028.123-.022.243-.05.36-.081.123-.037.238-.078.347-.123a2.5 2.5 0 0 0 .293-.143V7.052c-.395 0-.744.038-1.047.115-.3.073-.551.175-.755.307a1.383 1.383 0 0 0-.463.449 1.004 1.004 0 0 0-.156.538ZM456.559 8.25c0-.336.005-.681.014-1.035l.027-1.014.041-1.852h-.762v-.462l1.503-1.491.462-.055-.061 1.253h1.843l-.102.755h-1.782l-.027 1.757c-.009.295-.014.576-.014.844v.782c0 .282.021.52.062.715.04.195.097.352.17.47.072.118.16.204.265.258.104.05.222.075.353.075a1.626 1.626 0 0 0 1.034-.36l.136.054c-.055.83-.555 1.245-1.503 1.245-.562 0-.979-.152-1.251-.456-.272-.308-.408-.803-.408-1.483ZM460.204 7.024c0-.608.083-1.145.251-1.613.168-.467.388-.857.66-1.17.272-.318.582-.559.931-.722a2.495 2.495 0 0 1 1.068-.245c.376 0 .711.061 1.006.184.299.118.553.29.761.517.209.227.368.501.476.824.109.322.164.683.164 1.082v.415c0 .145-.005.304-.014.477H461.4c0 .39.052.737.157 1.041.108.304.256.563.442.776.185.209.403.37.652.483.25.11.519.164.809.164.168 0 .34-.014.517-.041.177-.027.349-.066.517-.116.172-.054.338-.118.496-.19.159-.078.304-.162.435-.252a.723.723 0 0 1 .034.156c.014.068.021.139.021.211 0 .159-.057.311-.17.456a1.452 1.452 0 0 1-.476.388 3.047 3.047 0 0 1-.755.266 4.42 4.42 0 0 1-.993.102c-.398 0-.772-.075-1.121-.225a2.75 2.75 0 0 1-.918-.64 3.107 3.107 0 0 1-.619-1.007 3.693 3.693 0 0 1-.224-1.32Zm4.202-.98c0-.34-.037-.637-.109-.891a1.744 1.744 0 0 0-.293-.627 1.15 1.15 0 0 0-.442-.374 1.24 1.24 0 0 0-.564-.13c-.19 0-.381.055-.571.164a1.83 1.83 0 0 0-.503.443 2.233 2.233 0 0 0-.497 1.416h2.979ZM466.636 9.768a1.398 1.398 0 0 0 .503-.3.755.755 0 0 0 .17-.211.468.468 0 0 0 .068-.238V4.302l-.904-.375v-.306c.321-.09.627-.154.917-.19.295-.041.544-.062.748-.062h.34v.98h.014l.387-.435c.191-.204.383-.356.578-.456a1.35 1.35 0 0 1 .646-.157c.485 0 .728.2.728.6 0 .13-.021.271-.061.421a2.212 2.212 0 0 1-.164.415 1.487 1.487 0 0 0-.421-.238 1.289 1.289 0 0 0-.442-.081c-.431 0-.839.19-1.224.571V9.42l.959.211v.266c-.118.04-.238.077-.361.109-.117.027-.244.05-.38.068a5.877 5.877 0 0 1-.449.04 9.581 9.581 0 0 1-.537.014 6.27 6.27 0 0 1-.592-.027 2.283 2.283 0 0 1-.523-.095v-.238ZM471.11 9.073c0-.1.009-.2.027-.3a1.07 1.07 0 0 1 .095-.272c.313.295.626.516.938.66a2.41 2.41 0 0 0 1.027.219c.39 0 .685-.082.884-.245a.78.78 0 0 0 .299-.62.87.87 0 0 0-.061-.333.743.743 0 0 0-.197-.293 1.695 1.695 0 0 0-.367-.28c-.15-.09-.34-.183-.572-.278l-.7-.293c-.403-.172-.714-.404-.931-.694a1.702 1.702 0 0 1-.32-1.035c0-.277.057-.538.17-.783.118-.25.283-.467.496-.653.213-.186.467-.334.762-.442.299-.114.63-.17.993-.17.276 0 .514.02.714.06.199.041.36.1.482.178.127.072.22.163.279.272a.706.706 0 0 1 .088.354c0 .104-.006.204-.02.3-.014.09-.032.185-.054.285a3.14 3.14 0 0 0-.762-.381 2.449 2.449 0 0 0-1.407-.082c-.164.046-.3.11-.408.19a.767.767 0 0 0-.245.273.762.762 0 0 0-.075.334c0 .127.016.24.048.34.036.1.095.193.177.28.086.085.199.167.339.244.141.077.316.157.524.238l.755.293c.249.095.46.202.632.32.177.113.32.24.428.381.114.14.195.297.245.47.05.168.075.354.075.558 0 .268-.063.526-.19.776a2.05 2.05 0 0 1-.524.653 2.72 2.72 0 0 1-.816.45c-.317.113-.671.17-1.061.17-.616 0-1.065-.096-1.346-.286-.281-.195-.421-.481-.421-.858ZM477.025 8.25c0-.336.005-.681.014-1.035l.027-1.014.041-1.852h-.762v-.462l1.503-1.491.462-.055-.061 1.253h1.843l-.102.755h-1.782l-.027 1.757c-.009.295-.014.576-.014.844v.782c0 .282.021.52.062.715.04.195.097.352.17.47.072.118.16.204.265.258.104.05.222.075.353.075a1.626 1.626 0 0 0 1.034-.36l.136.054c-.055.83-.556 1.245-1.503 1.245-.562 0-.979-.152-1.251-.456-.272-.308-.408-.803-.408-1.483ZM480.602 8.665c0-.304.081-.592.244-.865.163-.276.399-.52.707-.728a3.69 3.69 0 0 1 1.136-.49 5.822 5.822 0 0 1 1.53-.184v-.38c0-.378-.025-.684-.075-.92-.045-.236-.118-.42-.218-.551a.746.746 0 0 0-.387-.28 1.823 1.823 0 0 0-.558-.074 2.79 2.79 0 0 0-1.115.231 3.163 3.163 0 0 0-.972.674 1.698 1.698 0 0 1-.048-.415c0-.222.043-.42.129-.592.087-.177.22-.325.402-.443.185-.122.421-.215.707-.279.29-.063.639-.095 1.047-.095.353 0 .668.043.945.13.276.086.51.21.7.374.195.159.343.354.442.585.105.227.157.486.157.776a9.35 9.35 0 0 1-.028.667l-.013.395-.014.347-.041 2.26c.05.127.123.254.218.381.1.122.213.231.34.327a2.49 2.49 0 0 1-.415.388 3.452 3.452 0 0 1-.537.326 1.876 1.876 0 0 1-.353-.3 2.273 2.273 0 0 1-.286-.387 1.699 1.699 0 0 1-.354.265c-.14.082-.292.152-.455.211a2.69 2.69 0 0 1-.524.143 2.758 2.758 0 0 1-.544.055c-.263 0-.503-.039-.72-.116a1.782 1.782 0 0 1-.558-.32 1.488 1.488 0 0 1-.489-1.116Zm1.196-.204c0 .281.091.506.272.674.186.163.456.245.809.245.109 0 .222-.01.34-.028.123-.022.243-.05.361-.081.122-.037.238-.078.346-.123a2.5 2.5 0 0 0 .293-.143V7.052c-.395 0-.744.038-1.047.115-.3.073-.551.175-.755.307a1.37 1.37 0 0 0-.462.449.996.996 0 0 0-.157.538ZM486.843 8.665c0-.304.082-.592.245-.865.163-.276.399-.52.707-.728a3.68 3.68 0 0 1 1.136-.49 5.811 5.811 0 0 1 1.53-.184v-.38c0-.378-.025-.684-.075-.92-.046-.236-.118-.42-.218-.551a.75.75 0 0 0-.387-.28 1.827 1.827 0 0 0-.558-.074 2.79 2.79 0 0 0-1.115.231 3.14 3.14 0 0 0-.972.674 1.698 1.698 0 0 1-.048-.415c0-.222.043-.42.129-.592a1.1 1.1 0 0 1 .401-.443c.186-.122.422-.215.708-.279.29-.063.639-.095 1.047-.095.353 0 .668.043.945.13.276.086.51.21.7.374.195.159.342.354.442.585.104.227.156.486.156.776a8.935 8.935 0 0 1-.027.667l-.013.395-.014.347-.041 2.26c.05.127.123.254.218.381.1.122.213.231.34.327a2.49 2.49 0 0 1-.415.388 3.452 3.452 0 0 1-.537.326 1.883 1.883 0 0 1-.354-.3 2.324 2.324 0 0 1-.285-.387 1.699 1.699 0 0 1-.354.265c-.14.082-.292.152-.455.211a2.71 2.71 0 0 1-.524.143 2.765 2.765 0 0 1-.544.055c-.263 0-.503-.039-.721-.116a1.766 1.766 0 0 1-.557-.32 1.488 1.488 0 0 1-.49-1.116Zm1.197-.204c0 .281.091.506.272.674.186.163.455.245.809.245.109 0 .222-.01.34-.028.122-.022.243-.05.36-.081.123-.037.238-.078.347-.123a2.58 2.58 0 0 0 .293-.143V7.052c-.395 0-.744.038-1.048.115a2.45 2.45 0 0 0-.754.307 1.383 1.383 0 0 0-.463.449 1.004 1.004 0 0 0-.156.538ZM493.833 8.25c0-.336.005-.681.014-1.035l.027-1.014.041-1.852h-.762v-.462l1.503-1.491.462-.055-.061 1.253h1.842l-.101.755h-1.782l-.027 1.757c-.009.295-.014.576-.014.844v.782c0 .282.021.52.061.715.041.195.098.352.17.47a.688.688 0 0 0 .266.258c.104.05.222.075.353.075a1.626 1.626 0 0 0 1.034-.36l.136.054c-.055.83-.556 1.245-1.503 1.245-.562 0-.979-.152-1.251-.456-.272-.308-.408-.803-.408-1.483ZM498.389 9.352a.784.784 0 0 1 .238-.571.79.79 0 0 1 .251-.17.763.763 0 0 1 .626 0 .774.774 0 0 1 .428.429.754.754 0 0 1 0 .626.774.774 0 0 1-.428.428.763.763 0 0 1-.626 0 .788.788 0 0 1-.251-.17.858.858 0 0 1-.177-.259.816.816 0 0 1-.061-.313Z" fill="#000"/></svg>