<?xml version="1.0" encoding="utf-8"?>
<!-- Generator: Adobe Illustrator 25.1.0, SVG Export Plug-In . SVG Version: 6.00 Build 0)  -->
<svg version="1.1" id="Layer_1" xmlns="http://www.w3.org/2000/svg" xmlns:xlink="http://www.w3.org/1999/xlink" x="0px" y="0px"
	 viewBox="0 0 25 41" style="enable-background:new 0 0 25 41;" xml:space="preserve">
<style type="text/css">
	.st0{fill:#FFFFFF;}
	.st1{fill:url(#SVGID_1_);stroke:url(#SVGID_2_);stroke-width:1.1;stroke-linecap:round;}
	.st2{fill:none;stroke:#FFFFFF;stroke-width:1.1;stroke-linecap:round;stroke-opacity:0.122;}
	.st3{fill:url(#SVGID_3_);stroke:url(#SVGID_4_);stroke-width:1.1;stroke-linecap:round;}
	.st4{fill:url(#SVGID_5_);stroke:url(#SVGID_6_);stroke-width:1.1;stroke-linecap:round;}
	.st5{fill:url(#SVGID_7_);stroke:url(#SVGID_8_);stroke-width:1.1;stroke-linecap:round;}
	.st6{fill:url(#SVGID_9_);stroke:url(#SVGID_10_);stroke-width:1.1;stroke-linecap:round;}
	.st7{fill:url(#SVGID_11_);stroke:url(#SVGID_12_);stroke-width:1.1;stroke-linecap:round;}
	.st8{fill:url(#SVGID_13_);stroke:url(#SVGID_14_);stroke-width:1.1;stroke-linecap:round;}
	.st9{fill:url(#SVGID_15_);stroke:url(#SVGID_16_);stroke-width:1.1;stroke-linecap:round;}
	.st10{fill:url(#SVGID_17_);stroke:url(#SVGID_18_);stroke-width:1.1;stroke-linecap:round;}
	.st11{fill:url(#SVGID_19_);stroke:url(#SVGID_20_);stroke-width:1.1;stroke-linecap:round;}
	.st12{fill:url(#SVGID_21_);stroke:url(#SVGID_22_);stroke-width:1.1;stroke-linecap:round;}
	.st13{fill:url(#SVGID_23_);stroke:url(#SVGID_24_);stroke-width:1.1;stroke-linecap:round;}
	.st14{fill:url(#SVGID_25_);stroke:url(#SVGID_26_);stroke-width:1.1;stroke-linecap:round;}
	.st15{fill:url(#SVGID_27_);stroke:url(#SVGID_28_);stroke-width:1.1;stroke-linecap:round;}
</style>
<rect x="-282.8" y="22.5" class="st0" width="12.6" height="14.5"/>
<linearGradient id="SVGID_1_" gradientUnits="userSpaceOnUse" x1="-247.6272" y1="-700.3552" x2="-247.6272" y2="-662.7891" gradientTransform="matrix(1 0 0 -1 -28.846 -644.4253)">
	<stop  offset="0" style="stop-color:#126FC6"/>
	<stop  offset="1" style="stop-color:#4C9CD1"/>
</linearGradient>
<linearGradient id="SVGID_2_" gradientUnits="userSpaceOnUse" x1="-339.2072" y1="-681.8431" x2="-339.2072" y2="-662.7901" gradientTransform="matrix(1 0 0 -1 62.734 -644.4263)">
	<stop  offset="0" style="stop-color:#2E6C97"/>
	<stop  offset="1" style="stop-color:#3883B7"/>
</linearGradient>
<path class="st1" d="M-276.5,18.5c-6.6,0-12,5.7-12,11.9c0,2.8,1.6,6.3,2.7,8.7l9.3,17.9l9.3-17.9c1.1-2.4,2.7-5.8,2.7-8.7
	C-264.6,24.2-269.9,18.5-276.5,18.5L-276.5,18.5z M-276.5,25.7c2.6,0,4.7,2.1,4.7,4.7s-2.1,4.7-4.7,4.7s-4.7-2.1-4.7-4.7
	S-279.1,25.7-276.5,25.7z"/>
<text transform="matrix(1 0 0 1 -289.2823 4.2929)" style="font-family:'ArialMT'; font-size:4px;">Use this one. </text>
<text transform="matrix(1 0 0 1 -289.2823 9.2929)" style="font-family:'ArialMT'; font-size:4px;">Select it and the area around with box select. </text>
<text transform="matrix(1 0 0 1 -289.2823 14.2929)" style="font-family:'ArialMT'; font-size:4px;">should be exactly 25x41 at 90dpi</text>
<text transform="matrix(1 0 0 1 -284.3243 78.6818)" style="font-family:'ArialMT'; font-size:4px;">How to do the inset border: </text>
<text transform="matrix(1 0 0 1 -284.3243 83.6818)" style="font-family:'ArialMT'; font-size:4px;">Delete the existing inset border. Select the background, duplicate. </text>
<text transform="matrix(1 0 0 1 -284.3243 88.6818)" style="font-family:'ArialMT'; font-size:4px;">Path, Dynamic offset. </text>
<text transform="matrix(1 0 0 1 -284.3243 93.6818)" style="font-family:'ArialMT'; font-size:4px;">Fill: None, Stroke Paint: RGBA #ffffff1f </text>
<text transform="matrix(1 0 0 1 -284.3243 98.6818)" style="font-family:'ArialMT'; font-size:4px;">Zoom down to the top and grab the diamond, drag it down and fiddle it untill it looks in line </text>
<text transform="matrix(1 0 0 1 -284.3243 103.6818)" style="font-family:'ArialMT'; font-size:4px;">with the main color layers border.</text>
<path class="st2" d="M-276.5,19.6c-5.9,0-10.9,5.2-10.9,10.8c0,2.4,1.4,5.8,2.6,8.2l0,0l8.3,16l8.2-16l0,0c1.1-2.4,2.6-5.7,2.6-8.2
	C-265.7,24.8-270.6,19.6-276.5,19.6z M-276.5,24.6c3.2,0,5.8,2.6,5.8,5.8s-2.6,5.8-5.8,5.8c-3.2,0-5.8-2.6-5.8-5.8
	S-279.7,24.6-276.5,24.6z"/>
<linearGradient id="SVGID_3_" gradientUnits="userSpaceOnUse" x1="10.7728" y1="-744.821" x2="10.7728" y2="-707.255" gradientTransform="matrix(1 0 0 -1 -28.846 -644.4253)">
	<stop  offset="0" style="stop-color:#99993D"/>
	<stop  offset="1" style="stop-color:#B6B673"/>
</linearGradient>
<linearGradient id="SVGID_4_" gradientUnits="userSpaceOnUse" x1="-80.8072" y1="-726.309" x2="-80.8072" y2="-707.256" gradientTransform="matrix(1 0 0 -1 62.734 -644.4263)">
	<stop  offset="0" style="stop-color:#9A9A3F"/>
	<stop  offset="1" style="stop-color:#A6A656"/>
</linearGradient>
<path class="st3" d="M-18.1,63c-6.6,0-12,5.7-12,11.9c0,2.8,1.6,6.3,2.7,8.7l9.3,17.9l9.3-17.9c1.1-2.4,2.7-5.8,2.7-8.7
	C-6.1,68.7-11.5,63-18.1,63L-18.1,63z M-18.1,70.1c2.6,0,4.7,2.1,4.7,4.7s-2.1,4.7-4.7,4.7c-2.6,0-4.7-2.1-4.7-4.7
	C-22.7,72.3-20.6,70.2-18.1,70.1z"/>
<linearGradient id="SVGID_5_" gradientUnits="userSpaceOnUse" x1="-22.2272" y1="-744.821" x2="-22.2272" y2="-707.255" gradientTransform="matrix(1 0 0 -1 -28.846 -644.4253)">
	<stop  offset="0" style="stop-color:#996B3D"/>
	<stop  offset="1" style="stop-color:#B69573"/>
</linearGradient>
<linearGradient id="SVGID_6_" gradientUnits="userSpaceOnUse" x1="-113.8072" y1="-726.309" x2="-113.8072" y2="-707.256" gradientTransform="matrix(1 0 0 -1 62.734 -644.4263)">
	<stop  offset="0" style="stop-color:#9A6D3F"/>
	<stop  offset="1" style="stop-color:#A67E56"/>
</linearGradient>
<path class="st4" d="M-51.1,63c-6.6,0-12,5.7-12,11.9c0,2.8,1.6,6.3,2.7,8.7l9.3,17.9l9.3-17.9c1.1-2.4,2.7-5.8,2.7-8.7
	C-39.1,68.7-44.5,63-51.1,63L-51.1,63z M-51.1,70.1c2.6,0,4.7,2.1,4.7,4.7s-2.1,4.7-4.7,4.7c-2.6,0-4.7-2.1-4.7-4.7
	C-55.8,72.3-53.7,70.2-51.1,70.1z"/>
<linearGradient id="SVGID_7_" gradientUnits="userSpaceOnUse" x1="-55.9272" y1="-744.821" x2="-55.9272" y2="-707.255" gradientTransform="matrix(1 0 0 -1 -28.846 -644.4253)">
	<stop  offset="0" style="stop-color:#993D3D"/>
	<stop  offset="1" style="stop-color:#B67373"/>
</linearGradient>
<linearGradient id="SVGID_8_" gradientUnits="userSpaceOnUse" x1="-147.5072" y1="-726.309" x2="-147.5072" y2="-707.256" gradientTransform="matrix(1 0 0 -1 62.734 -644.4263)">
	<stop  offset="0" style="stop-color:#9A3F3F"/>
	<stop  offset="1" style="stop-color:#A65656"/>
</linearGradient>
<path class="st5" d="M-84.8,63c-6.6,0-12,5.7-12,11.9c0,2.8,1.6,6.3,2.7,8.7l9.3,17.9l9.3-17.9c1.1-2.4,2.7-5.8,2.7-8.7
	C-72.8,68.7-78.2,63-84.8,63L-84.8,63z M-84.8,70.1c2.6,0,4.7,2.1,4.7,4.7s-2.1,4.7-4.7,4.7c-2.6,0-4.7-2.1-4.7-4.7
	C-89.4,72.3-87.4,70.2-84.8,70.1z"/>
<linearGradient id="SVGID_9_" gradientUnits="userSpaceOnUse" x1="299.1728" y1="-744.821" x2="299.1728" y2="-707.255" gradientTransform="matrix(1 0 0 -1 -28.846 -644.4253)">
	<stop  offset="0" style="stop-color:#993D6B"/>
	<stop  offset="1" style="stop-color:#B67395"/>
</linearGradient>
<linearGradient id="SVGID_10_" gradientUnits="userSpaceOnUse" x1="207.5928" y1="-726.309" x2="207.5928" y2="-707.256" gradientTransform="matrix(1 0 0 -1 62.734 -644.4263)">
	<stop  offset="0" style="stop-color:#9A3F6D"/>
	<stop  offset="1" style="stop-color:#A6567E"/>
</linearGradient>
<path class="st6" d="M270.3,63c-6.6,0-12,5.7-12,11.9c0,2.8,1.6,6.3,2.7,8.7l9.3,17.9l9.3-17.9c1.1-2.4,2.7-5.8,2.7-8.7
	C282.2,68.7,276.8,63,270.3,63L270.3,63z M270.3,70.1c2.6,0,4.7,2.1,4.7,4.7s-2.1,4.7-4.7,4.7c-2.6,0-4.7-2.1-4.7-4.7
	C265.6,72.3,267.7,70.2,270.3,70.1z"/>
<linearGradient id="SVGID_11_" gradientUnits="userSpaceOnUse" x1="266.1728" y1="-744.821" x2="266.1728" y2="-707.255" gradientTransform="matrix(1 0 0 -1 -28.846 -644.4253)">
	<stop  offset="0" style="stop-color:#993D99"/>
	<stop  offset="1" style="stop-color:#B673B6"/>
</linearGradient>
<linearGradient id="SVGID_12_" gradientUnits="userSpaceOnUse" x1="174.5928" y1="-726.309" x2="174.5928" y2="-707.256" gradientTransform="matrix(1 0 0 -1 62.734 -644.4263)">
	<stop  offset="0" style="stop-color:#9A3F9A"/>
	<stop  offset="1" style="stop-color:#A656A6"/>
</linearGradient>
<path class="st7" d="M237.3,63c-6.6,0-12,5.7-12,11.9c0,2.8,1.6,6.3,2.7,8.7l9.3,17.9l9.3-17.9c1.1-2.4,2.7-5.8,2.7-8.7
	C249.3,68.7,243.9,63,237.3,63L237.3,63z M237.3,70.1c2.6,0,4.7,2.1,4.7,4.7s-2.1,4.7-4.7,4.7c-2.6,0-4.7-2.1-4.7-4.7
	C232.7,72.3,234.7,70.2,237.3,70.1z"/>
<linearGradient id="SVGID_13_" gradientUnits="userSpaceOnUse" x1="233.6228" y1="-744.821" x2="233.6228" y2="-707.255" gradientTransform="matrix(1 0 0 -1 -28.846 -644.4253)">
	<stop  offset="0" style="stop-color:#6B3D99"/>
	<stop  offset="1" style="stop-color:#9573B6"/>
</linearGradient>
<linearGradient id="SVGID_14_" gradientUnits="userSpaceOnUse" x1="142.0428" y1="-726.309" x2="142.0428" y2="-707.256" gradientTransform="matrix(1 0 0 -1 62.734 -644.4263)">
	<stop  offset="0" style="stop-color:#6D3F9A"/>
	<stop  offset="1" style="stop-color:#7E56A6"/>
</linearGradient>
<path class="st8" d="M204.8,63c-6.6,0-12,5.7-12,11.9c0,2.8,1.6,6.3,2.7,8.7l9.3,17.9l9.2-17.9c1.1-2.4,2.7-5.8,2.7-8.7
	C216.7,68.7,211.3,63,204.8,63L204.8,63z M204.8,70.1c2.6,0,4.7,2.1,4.7,4.7s-2.1,4.7-4.7,4.7c-2.6,0-4.7-2.1-4.7-4.7
	C200.1,72.3,202.2,70.2,204.8,70.1z"/>
<linearGradient id="SVGID_15_" gradientUnits="userSpaceOnUse" x1="201.3728" y1="-744.821" x2="201.3728" y2="-707.255" gradientTransform="matrix(1 0 0 -1 -28.846 -644.4253)">
	<stop  offset="0" style="stop-color:#3D3D99"/>
	<stop  offset="1" style="stop-color:#7373B6"/>
</linearGradient>
<linearGradient id="SVGID_16_" gradientUnits="userSpaceOnUse" x1="109.7928" y1="-726.309" x2="109.7928" y2="-707.256" gradientTransform="matrix(1 0 0 -1 62.734 -644.4263)">
	<stop  offset="0" style="stop-color:#3F3F9A"/>
	<stop  offset="1" style="stop-color:#5656A6"/>
</linearGradient>
<path class="st9" d="M172.5,63c-6.6,0-12,5.7-12,11.9c0,2.8,1.6,6.3,2.7,8.7l9.3,17.9l9.3-17.9c1.1-2.4,2.7-5.8,2.7-8.7
	C184.5,68.7,179.1,63,172.5,63L172.5,63z M172.5,70.1c2.6,0,4.7,2.1,4.7,4.7s-2.1,4.7-4.7,4.7c-2.6,0-4.7-2.1-4.7-4.7
	C167.9,72.3,170,70.2,172.5,70.1z"/>
<linearGradient id="SVGID_17_" gradientUnits="userSpaceOnUse" x1="167.7728" y1="-744.821" x2="167.7728" y2="-707.255" gradientTransform="matrix(1 0 0 -1 -28.846 -644.4253)">
	<stop  offset="0" style="stop-color:#3D6B99"/>
	<stop  offset="1" style="stop-color:#7395B6"/>
</linearGradient>
<linearGradient id="SVGID_18_" gradientUnits="userSpaceOnUse" x1="76.1928" y1="-726.309" x2="76.1928" y2="-707.256" gradientTransform="matrix(1 0 0 -1 62.734 -644.4263)">
	<stop  offset="0" style="stop-color:#3F6D9A"/>
	<stop  offset="1" style="stop-color:#567EA6"/>
</linearGradient>
<path class="st10" d="M138.9,63c-6.6,0-12,5.7-12,11.9c0,2.8,1.6,6.3,2.7,8.7l9.3,17.9l9.3-17.9c1.1-2.4,2.7-5.8,2.7-8.7
	C150.8,68.7,145.4,63,138.9,63L138.9,63z M138.9,70.1c2.6,0,4.7,2.1,4.7,4.7s-2.1,4.7-4.7,4.7c-2.6,0-4.7-2.1-4.7-4.7
	C134.2,72.3,136.3,70.2,138.9,70.1z"/>
<linearGradient id="SVGID_19_" gradientUnits="userSpaceOnUse" x1="136.2728" y1="-744.821" x2="136.2728" y2="-707.255" gradientTransform="matrix(1 0 0 -1 -28.846 -644.4253)">
	<stop  offset="0" style="stop-color:#3D9999"/>
	<stop  offset="1" style="stop-color:#73B6B6"/>
</linearGradient>
<linearGradient id="SVGID_20_" gradientUnits="userSpaceOnUse" x1="44.6928" y1="-726.309" x2="44.6928" y2="-707.256" gradientTransform="matrix(1 0 0 -1 62.734 -644.4263)">
	<stop  offset="0" style="stop-color:#3F9A9A"/>
	<stop  offset="1" style="stop-color:#56A6A6"/>
</linearGradient>
<path class="st11" d="M107.4,63c-6.6,0-12,5.7-12,11.9c0,2.8,1.6,6.3,2.7,8.7l9.3,17.9l9.3-17.9c1.1-2.4,2.7-5.8,2.7-8.7
	C119.3,68.7,114,63,107.4,63L107.4,63z M107.4,70.1c2.6,0,4.7,2.1,4.7,4.7s-2.1,4.7-4.7,4.7s-4.7-2.1-4.7-4.7
	C102.7,72.3,104.8,70.2,107.4,70.1z"/>
<linearGradient id="SVGID_21_" gradientUnits="userSpaceOnUse" x1="104.7728" y1="-744.821" x2="104.7728" y2="-707.255" gradientTransform="matrix(1 0 0 -1 -28.846 -644.4253)">
	<stop  offset="0" style="stop-color:#3D996B"/>
	<stop  offset="1" style="stop-color:#73B695"/>
</linearGradient>
<linearGradient id="SVGID_22_" gradientUnits="userSpaceOnUse" x1="13.1928" y1="-726.309" x2="13.1928" y2="-707.256" gradientTransform="matrix(1 0 0 -1 62.734 -644.4263)">
	<stop  offset="0" style="stop-color:#3F9A6D"/>
	<stop  offset="1" style="stop-color:#56A67E"/>
</linearGradient>
<path class="st12" d="M75.9,63c-6.6,0-12,5.7-12,11.9c0,2.8,1.6,6.3,2.7,8.7l9.3,17.9l9.3-17.9c1.1-2.4,2.7-5.8,2.7-8.7
	C87.9,68.7,82.5,63,75.9,63L75.9,63z M75.9,70.1c2.6,0,4.7,2.1,4.7,4.7s-2.1,4.7-4.7,4.7s-4.7-2.1-4.7-4.7
	C71.2,72.3,73.3,70.2,75.9,70.1z"/>
<linearGradient id="SVGID_23_" gradientUnits="userSpaceOnUse" x1="72.5728" y1="-744.821" x2="72.5728" y2="-707.255" gradientTransform="matrix(1 0 0 -1 -28.846 -644.4253)">
	<stop  offset="0" style="stop-color:#3D993D"/>
	<stop  offset="1" style="stop-color:#73B673"/>
</linearGradient>
<linearGradient id="SVGID_24_" gradientUnits="userSpaceOnUse" x1="-19.0072" y1="-726.309" x2="-19.0072" y2="-707.256" gradientTransform="matrix(1 0 0 -1 62.734 -644.4263)">
	<stop  offset="0" style="stop-color:#3F9A3F"/>
	<stop  offset="1" style="stop-color:#56A656"/>
</linearGradient>
<path class="st13" d="M43.7,63c-6.6,0-12,5.7-12,11.9c0,2.8,1.6,6.3,2.7,8.7l9.3,17.9L53,83.6c1.1-2.4,2.7-5.8,2.7-8.7
	C55.7,68.7,50.3,63,43.7,63L43.7,63z M43.7,70.1c2.6,0,4.7,2.1,4.7,4.7s-2.1,4.7-4.7,4.7S39,77.4,39,74.8
	C39,72.3,41.1,70.2,43.7,70.1z"/>
<linearGradient id="SVGID_25_" gradientUnits="userSpaceOnUse" x1="41.1728" y1="-682.8911" x2="41.1728" y2="-645.3251" gradientTransform="matrix(1 0 0 -1 -28.846 -644.4253)">
	<stop  offset="0" style="stop-color:#446127"/>
	<stop  offset="1" style="stop-color:#667D4F"/>
</linearGradient>
<linearGradient id="SVGID_26_" gradientUnits="userSpaceOnUse" x1="-50.4072" y1="-664.3791" x2="-50.4072" y2="-645.3261" gradientTransform="matrix(1 0 0 -1 62.734 -644.4263)">
	<stop  offset="0" style="stop-color:#456128"/>
	<stop  offset="1" style="stop-color:#536E39"/>
</linearGradient>
<path class="st14" d="M12.3,1.1c-6.6,0-12,5.7-12,11.9c0,2.8,1.6,6.3,2.7,8.7l9.3,17.9l9.3-17.9c1.1-2.4,2.7-5.8,2.7-8.7
	C24.2,6.8,18.8,1.1,12.3,1.1L12.3,1.1z M12.3,8.2c2.6,0,4.7,2.1,4.7,4.7s-2.1,4.7-4.7,4.7c-2.6,0-4.7-2.1-4.7-4.7
	C7.6,10.4,9.7,8.3,12.3,8.2z"/>
<linearGradient id="SVGID_27_" gradientUnits="userSpaceOnUse" x1="41.1728" y1="-744.821" x2="41.1728" y2="-707.255" gradientTransform="matrix(1 0 0 -1 -28.846 -644.4253)">
	<stop  offset="0" style="stop-color:#6B993D"/>
	<stop  offset="1" style="stop-color:#95B673"/>
</linearGradient>
<linearGradient id="SVGID_28_" gradientUnits="userSpaceOnUse" x1="-50.4072" y1="-726.309" x2="-50.4072" y2="-707.256" gradientTransform="matrix(1 0 0 -1 62.734 -644.4263)">
	<stop  offset="0" style="stop-color:#6D9A3F"/>
	<stop  offset="1" style="stop-color:#7EA656"/>
</linearGradient>
<path class="st15" d="M12.3,63c-6.6,0-12,5.7-12,11.9c0,2.8,1.6,6.3,2.7,8.7l9.3,17.9l9.3-17.9c1.1-2.4,2.7-5.8,2.7-8.7
	C24.2,68.7,18.8,63,12.3,63L12.3,63z M12.3,70.1c2.6,0,4.7,2.1,4.7,4.7s-2.1,4.7-4.7,4.7c-2.6,0-4.7-2.1-4.7-4.7
	C7.6,72.3,9.7,70.2,12.3,70.1z"/>
</svg>
