<?xml version="1.0" encoding="utf-8"?>
<!-- Generator: Adobe Illustrator 18.1.0, SVG Export Plug-In . SVG Version: 6.00 Build 0)  -->
<svg version="1.2" baseProfile="tiny" xmlns="http://www.w3.org/2000/svg" xmlns:xlink="http://www.w3.org/1999/xlink" x="0px"
	 y="0px" width="64px" height="64px" viewBox="0 0 64 64" xml:space="preserve">
<g id="_x36_4px_Boxes">
	<rect fill="none" width="64" height="64"/>
</g>
<g id="Production">
	<path d="M26,7c0,0-2.5349,13.4348-2.6138,13.728c-0.0955,0.3541-0.386,0.2609-0.386,0.2609L23,6L4.1704,14.5838
		C3.4575,14.9088,3,15.6201,3,16.4036v39.5953c0,0.7278,0.7526,1.2118,1.4148,0.9099l18.5477-9.009l17.1805,8.6678
		c0.5418,0.2733,1.1783,0.2859,1.7305,0.0342l17.9562-8.1856C60.5425,48.0912,61,47.3799,61,46.5964V7.0012
		c0-0.7278-0.7526-1.2118-1.4148-0.9099L41,15.0833L26,7z"/>
</g>
</svg>
